<svg xmlns="http://www.w3.org/2000/svg" xmlns:xlink="http://www.w3.org/1999/xlink" id="Layer_1" width="2947" height="2947" viewBox="0 0 2947 2947"><style>.st2{fill:#fff}.st2,.st3,.st4{display:none}.st3{fill:#2aa9e0}.st4{fill:#016fba}.st11,.st13,.st9{display:none;fill:#fc0}.st11,.st13{fill:#6f6}.st13{fill:#e34c26}.st19{fill:#015051}.st20{fill:#016b6b}.st21{fill:#002122}</style><linearGradient id="SVGID_1_" x1="651.756" x2="2295.701" y1="1581.054" y2="1581.054" gradientTransform="matrix(1 0 0 -1 0 3000)" gradientUnits="userSpaceOnUse"><stop offset=".5" stop-color="#eaeaea"/><stop offset=".5" stop-color="#ececec"/><stop offset=".5" stop-color="#f3f3f3"/><stop offset=".5" stop-color="#fefefe"/><stop offset=".5" stop-color="#fff"/></linearGradient><linearGradient id="SVGID_2_" x1="654" x2="2297" y1="1585.719" y2="1585.719" gradientTransform="matrix(1 0 0 -1 0 3000)" gradientUnits="userSpaceOnUse"><stop offset=".5" stop-color="#eaeaea"/><stop offset=".5" stop-color="#ececec"/><stop offset=".5" stop-color="#f3f3f3"/><stop offset=".5" stop-color="#fefefe"/><stop offset=".5" stop-color="#fff"/></linearGradient><image xlink:href="82106FE0730638EC.jpeg" width="263" height="263" overflow="visible" transform="translate(447 423)scale(7.9848)"/><path d="M0 0h2947v2947H0z" style="fill:#09a1a1"/><g id="XMLID_2_"><path d="m1371.6 965-2.8-1V705.2l2.9-2.6 1-1.6 956.2 619.8-957.4-355.5zm0 712-.1-.3 957.4-355.5-956.3 619.8-.9-1.4h-2.9V1678z" style="fill:#001717"/><path d="m1812.5 290.7 516.4 1030.1L1372.7 701l-1.2-.8.2-.5 437.7-406.1zm516.4 1030.5-516.4 1030.1-2.9-2.8-437.9-406.2-.2-.5 1.1-.8z" class="st19"/><path d="m1371.5 700.2 1.2.8-1 1.6H671.4l-6.3-2.4 174.9-407 .9.4h968.5l-437.7 406.1zm.2 2.4-2.9 2.6v-2.6zm0 1237 .9 1.4-1.1.8.2.5 437.9 406.2H840.9l-.9.4-174.9-407.1 5.9-2.2h694.7l3.1 2.9v-2.9z" class="st20"/><path d="m1371.5 965.3 957.4 355.5v.4l-957.4 355.5.1.3-2.8 1V964l2.8 1z" class="st19"/><path d="M1368.8 1939.6v2.9l-3.1-2.9z" class="st20"/><path d="M1368.8 1678v261.6h-3.1l-199.2-185.8z" class="st21"/><path d="M1368.8 1677.1v.9l-202.3 75.8-459.3-432.2v-1.2l459.3-432.2 202.3 75.8v357.8z" class="st20"/><path d="M1368.8 705.2V964l-202.3-75.8z" class="st21"/><path d="M1368.8 702.6v2.6l-202.3 183-495.1-185.6zm-3.1 1237H671l495.5-185.8z" style="fill:#013535"/></g><path d="M1043.9 2512.8h80.1l26.1 100.5 8.5 39.8h1.4l8.5-39.8 24.6-100.5h80.1v308.1h-65.4v-72.5q0-13.8 1.2-34.8c.8-14.1 1.7-28.6 2.6-43.6s2.1-29.5 3.3-43.4c1.3-13.9 2.4-25.4 3.3-34.6h-1.4l-25.6 91.5-16.1 55.5H1140l-16.1-55.5-24.2-91.5h-1.9c.9 9.2 2.1 20.7 3.3 34.6 1.3 13.9 2.4 28.4 3.3 43.4s1.8 29.6 2.6 43.6q1.2 21.15 1.2 34.8v72.5h-64.5zm493.9 242.7h-84.4l-15.2 65.4h-83.4l92.9-308.1h98.6l92.9 308.1h-86.3zm-14.7-63.1-4.7-21.3c-3.5-14.9-7.1-31-10.9-48.3-3.8-17.4-7.6-33.8-11.4-49.3h-1.9c-3.5 15.8-7 32.3-10.7 49.5-3.6 17.2-7.2 33.3-10.7 48.1l-4.7 21.3zm261.1-29.8-83.9-149.8h91l24.6 50.2c3.5 7.3 7.1 15.1 10.9 23.5s7.9 17.6 12.3 27.7h1.9c3.5-10.1 6.9-19.4 10.4-27.7 3.5-8.4 6.8-16.2 10-23.5l21.8-50.2h87.2l-83.9 153.6 89.1 154.5h-91l-28.4-55c-4.4-8.2-8.5-16.4-12.1-24.6s-7.5-17.1-11.6-26.5h-1.9c-3.5 9.5-7 18.3-10.7 26.5q-5.4 12.3-11.1 24.6l-26.5 55h-87.2z" style="fill:#fff"/></svg>