<svg xmlns="http://www.w3.org/2000/svg" xml:space="preserve" id="Ebene_1" x="0" y="0" viewBox="0 0 207.8 120"><style>.st1,.st2{fill:#fff}.st2{stroke:#fff;stroke-width:.4166;stroke-miterlimit:1.9933}</style><g id="layer1" transform="matrix(1.2 0 0 1.2 -229.278 -646.323)"><g id="g3363" transform="matrix(.58827 0 0 -.58827 191.064 638.602)"><g id="g3365" transform="translate(-131.809 509.294)"><g id="g3367"><g id="g3369"><g id="g3371"><path id="path3373" d="M208.1-347.8c1.9-3.4 3.9-6.4 5.9-8.9-.9.1-1.9.2-2.9.2-2 0-4.2-.4-6.5-1.1 4-3.3 7.4-5.8 10.4-7.7-.1 0-.2.1-.2.1l.2-.1c-4.6 1.4-9.6 1.6-15.4-1.1 4.2-2.6 7.7-4.5 10.8-6h-.3l.2-.1c-4.8.8-9.9.4-15.3-3.2 3.6-1.6 6.7-2.8 9.4-3.7l.2-.1c-4.6-.2-9.2-1.6-13.6-5.9 3.9-1 7.2-1.6 10.2-2h-.5.1c-3.4-.8-6.8-2.5-10.1-5.8 2.7-.6 5-1 7.2-1.3-2.7-1.3-5.2-3.3-7.6-6.4 3.1-.2 5.8-.3 8.2-.3-2.9-1.4-5.7-3.5-8.2-6.9 4.4-.2 8-.2 11.2 0-.1 0-.1-.1-.2-.1h-.6l.3-.1c-3.3-1.4-6.3-3.8-8.9-7.7 5.4-.1 9.7.2 13.3.6-.1 0-.2-.1-.3-.1h-.4.2c-4.2-1.3-8.2-3.7-11.4-8.6 4.4-.1 8 .1 11.2.4-.1 0-.1-.1-.2-.1-3.8-2.1-7-5.2-9.1-10.6 3.9.7 7.1 1.5 9.9 2.3l-.1-.1h.2c-2.9-2.2-5.3-5.2-6.9-9.6 2.7.6 5 1.2 7.1 1.8-1.9-2.3-3.4-5.2-4.2-9 2.9 1.1 5.4 2.1 7.6 3.1 0 0 0-.1-.1-.1l-.1-.1h.1c-2-2.4-3.6-5.5-4.4-9.6 4.1 1.6 7.4 3.2 10.1 4.7-.1-.1-.2-.1-.2-.2h.1c-2.5-2.7-4.3-6.2-5-10.9 4.8 2.1 8.5 4.1 11.5 5.9l-.1-.1.2.1c-3.4-2.9-6.1-6.9-7-12.8 6.5 2.8 11 5.4 14.5 7.8-1.5-3-2.3-6.6-1.9-11 6.2 4.8 10.2 8.6 13.1 12.1v-.1c-.2-2.2 0-4.5.6-7.1 3.7 6.4 7.4 9 11.2 11.2-4.7-3-3.9-5.5-3.9-8.3 5.6 5.9 13.4 12.2 15.8 16.1-3.2-4.8-4.5-9.3-5.3-13.4-16.3-8.6-26.3-10.9-37.4-14.3 4.3-1.6 9-3.1 7-5.3l-5.1-5.1c3.3 1 6.6 2.5 9.5.5-.3-2.7-3.7-4-6.6-5.6 5.1 1.8 6.2 1.4 7.5 1 .7-3.2-1.7-4.9-3.2-7 12.8 9.7 29.5 17.4 41.3 20.6 16.6 5.6 37.9 11.4 43.7 25.5l5.8 23.3c6.8 7.4 13.1 15 16 24.3 19 3.7 34.3 2.4 50.3 1.9-1.5.2-48.8 8.3-48.8 8.3-13.8 18.9-34.5 6.1-41.3-12.7-1.7-4.7-11.5-4.7-14.3 0-11.5 23.6-45.5 49.1-74.5 58.5"/></g><g id="g3375"><path id="path3377" d="M207.7-346.4c1.9-3.4 3.9-6.4 6-8.9-.9.1-1.9.2-2.9.2-2 0-4.1-.4-6.5-1.1 4-3.4 7.5-5.9 10.5-7.8-4.7 1.5-9.7 1.7-15.6-1.1 4.3-2.7 7.9-4.6 11.1-6.1-4.9.9-10.1.5-15.6-3.2 3.7-1.6 6.9-2.9 9.7-3.8-4.6-.2-9.2-1.6-13.7-5.9 3.9-1 7.2-1.6 10.2-2-3.6-.7-7.1-2.5-10.6-5.9 2.7-.6 5-1 7.2-1.3-2.7-1.3-5.2-3.3-7.6-6.4 3.1-.2 5.8-.3 8.2-.4-2.9-1.4-5.7-3.5-8.2-7 4.4-.2 8-.2 11.2 0-3.5-1.4-6.6-3.8-9.4-7.9 5.4-.1 9.7.2 13.3.6-4.5-1.2-8.6-3.7-12-8.8 4.4-.1 8 .1 11.2.4-3.8-2.1-7.1-5.3-9.3-10.7 4 .7 7.3 1.6 10.1 2.4-3-2.2-5.5-5.2-7.1-9.8 2.7.6 5 1.2 7.1 1.8-1.9-2.3-3.4-5.2-4.2-9 2.9 1.1 5.4 2.1 7.6 3.1-2.1-2.5-3.7-5.6-4.5-9.7 4.1 1.6 7.4 3.2 10.1 4.7-2.5-2.7-4.4-6.2-5.2-11.1 4.9 2.2 8.7 4.2 11.8 6.1-3.5-3-6.3-6.9-7.2-13 6.5 2.8 11 5.4 14.5 7.8-1.5-3-2.3-6.6-1.9-11.1 6.2 4.8 10.2 8.7 13.1 12.1q-.3-3.3.6-7.2c4.5 7.7 8.9 9.9 13.5 12.5-7.3-3.7-6.2-6.5-6.2-9.7 5.6 5.9 13.4 12.1 15.8 16.1-3.2-4.8-4.5-9.3-5.3-13.3-16.3-8.6-26.3-10.9-37.4-14.3 4.3-1.6 9-3.1 7-5.3l-5.1-5.1c3.3 1 6.6 2.5 9.5.5-.3-2.7-3.7-4-6.6-5.6 5.1 1.8 6.2 1.4 7.5 1 .7-3.2-1.7-4.9-3.2-7.1 12.8 9.7 29.5 17.4 41.3 20.7 16.6 5.6 37.9 11.4 43.7 25.5l5.8 23.3c6.8 7.4 13.1 15 16 24.3 19 3.7 34.3 2.3 50.3 1.9-1.5.2-48.8 8.3-48.8 8.3-13.8 18.9-34.5 6.1-41.3-12.6-1.7-4.7-11.5-4.7-14.3 0-11.1 24-45.2 49.5-74.2 58.9" style="fill:teal"/></g><g id="g3379"><path id="path3381" d="m319.6-395.8-.1-.2c-.5-.9-1.3-1.5-2.5-1.9s-2.7-.5-4.4-.4h-1.1l.8-.8c.4-.4.5-.7.5-1s-.1-.6-.4-.9c-.5-.7-1.6-1.4-2.5-2.1l-.3-.2.2-.3c.8-1.2 1.2-2.2 1.3-2.9s-.1-1.3-.4-1.7c-.7-.9-2.2-1.5-3.5-2.3l-.2-.1v-.3q.15-1.05-.6-1.8c-.5-.6-1.3-1.1-2.5-1.6l-.3-.1v-.3c.2-1.5.7-2.8 1.6-3.6s2.2-1 3.8-.6c.3-1.6.7-3.1 1.7-4 1-1 2.5-1.3 4.6-.7.5-1.1 1.1-1.9 1.9-2.4.9-.6 2-.8 2.9-1.1l.5.6c-.9.3-2.2.7-3 1.2-.7.5-1.3 1.2-1.7 2.3l-.1.4-.4-.1c-2.1-.7-3.3-.4-4.1.4s-1.3 2.3-1.5 4l-.1.4-.4-.1c-1.7-.5-2.8-.2-3.5.4s-1 1.6-1.3 2.9c1 .5 1.9 1 2.4 1.6s.8 1.4.7 2.2c1.2.7 2.7 1.3 3.6 2.4.4.6.7 1.4.6 2.3q-.15 1.2-1.2 3c.9.6 1.8 1.3 2.4 2 .3.4.6.9.6 1.4 0 .3-.3.6-.4.8 1.5 0 2.9.1 4 .4 1.2.4 2.1 1.1 2.8 2.1 1.8 0 3.7-.4 5.5-.6 1.9-.3 3.9-.3 5.8.5l-.3.8c-1.6-.7-3.4-.7-5.3-.4-1.9.2-3.8.7-5.8.7z" class="st1"/></g><g id="g3383"><path id="path3385" d="M326.6-395.5c0-2-1.6-3.5-3.5-3.5-2 0-3.5 1.6-3.5 3.5 0 2 1.6 3.5 3.5 3.5s3.5-1.6 3.5-3.5z" class="st2"/></g><g id="g3387"><path id="path3389" d="M337.1-392.2c-3.2-4.1-4-3.1-5.9-3.8l-.3-.1v-.3c.7-4.2 3.2-5.5 5.1-7l.1.3.5.1c-1.9 1.5-4 2.8-4.8 6.3 1.4.3 2.8-.1 5.8 3.8z" class="st1"/></g><g id="g3391"><path id="path3393" d="M214.8-364c6-3.7 15.9-7.6 22.2-11.6 3.5-2.2 6.6-4.4 9.1-6.4 2.4-1.9 4.2-3.9 4.9-4.5s1.1-.3.7.5-2.6 2.8-5.1 4.7-5.6 4.1-9.1 6.4c-7 4.5-15.3 8.5-22.7 10.9" class="st1"/></g><g id="g3395"><path id="path3397" d="M213.7-355.3c2.5-.6 6.2-2.7 10.4-5 4.1-2.3 8.6-5.1 12.8-7.9 4.1-2.7 7.3-5.2 9.8-7.1 2.4-2.1 3.6-3.4 4.1-3.4h.2c.1 0 .3.1.3.2.1.2.1.3 0 .4 0 .1 0 .1-.1.2-.1.2-.3.4-.6.7-.6.6-1.6 1.4-2.9 2.3-2.6 2-6.3 4.6-10.4 7.4s-8.7 5.6-12.8 7.9c-1.5.6-8.8 4.4-10.8 4.3" class="st1"/></g><g id="g3399"><path id="path3401" d="M210.3-371.2c7.7-3.1 18.7-6.8 26-11.4 3.9-2.5 7.4-5 9.9-7 1.3-1 2.3-1.9 3.1-2.7.8-.7 1.2-1.4 1.5-1.6.5-.4.9-.1.7.5-.2.5-.8 1-1.6 1.7s-1.9 1.7-3.2 2.7c-2.6 2.1-6 4.6-10 7.1-7.9 5-17.4 9.5-26.4 10.7" class="st1"/></g><g id="g3403"><path id="path3405" d="M204.3-378.2c6 0 18.4-5.5 23.6-8.3 8.5-4.5 16.2-10.3 20.4-14.4.5-.5 1.2-.1.6.6-4 4.6-12.1 10-20.7 14.5-8.4 4.7-17.2 7.6-23.9 7.6" class="st1"/></g><g id="g3407"><path id="path3409" d="M200.9-386.1c9-1.3 19.9-5 27.7-8.9 4.4-2.2 8.3-4.6 11.3-6.7s5.2-4.5 5.8-5.1c.5-.6 1.2-.6.7.4-.5 1.1-3 3.2-6 5.4s-7 4.5-11.4 6.8c-8.9 4.5-19 8-28.1 8.1" class="st1"/></g><g id="g3411"><path id="path3413" d="M203.9-392.8c-2.2.2-4.3-.3-6.3-.5 8 .8 19.2-2.9 26.7-6.4 8.8-4.1 16.1-9.8 19.6-13.4.5-.6.9.2.6.5-3.3 4.2-11 9.5-19.9 13.6-6.7 3.2-14 5.6-20.7 6.2" class="st1"/></g><g id="g3415"><path id="path3417" d="M198.2-400c7.9-.6 18.5-2.5 25.9-5.9 7.4-3.5 13.1-8 15.9-10.6.4-.4 1.2-.1.6.6-2.6 3-8.6 7.2-16.2 10.7-7.5 3.6-16.7 5.8-26.2 5.2" class="st1"/></g><g id="g3419"><path id="path3421" d="M205.2-406.6c-1.7.1-2.4-.3-4.1-.4 5.4-.2 13.9-1.7 18.6-3.3 6.1-2.1 11.1-5.3 14-7.8.6-.5 1 .2.6.6-2.7 3-8.1 5.9-14.3 8-4.6 1.6-9.8 2.7-14.8 2.9" class="st1"/></g><g id="g3423"><path id="path3425" d="M205-414.4c11.5-.8 18.4-2.8 23.7-7.5.4-.4 1 .1.6.6-5.4 5.9-16.2 7.5-24.3 6.9" class="st1"/></g><g id="g3427"><path id="path3429" d="M213.8-421.2c-3.5.3-6.4-.5-9.5-1.5 9.3 1.5 13.1.8 20.1-2.5.8-.4.8.5.4.7-3.7 2.2-7.5 3-11 3.3" class="st1"/></g><g id="g3431"><path id="path3433" d="M213.5-427.7q-4.95-.45-8.4-3.3c9.2 3.5 11.7 2.8 18.7.8.9-.3.6.6.3.8-4.2 1.7-7.3 2-10.6 1.7" class="st1"/></g><g id="g3435"><path id="path3437" d="M231.7-433.4c-4.9.5-10.4-.1-15.2-.9-4.8-.9-9-2.7-11.3-4.6 8 3.4 9.5 3.4 11.5 3.8 4.8.9 9.5 1.2 15 .9.4 0 .4.8 0 .8" class="st1"/></g><g id="g3439"><path id="path3441" d="M234.5-437.3c-5.3.2-10.8-1.1-15.5-2.5s-8.3-3.2-10.6-5.1c4.7 2.3 9.1 3.8 10.8 4.3 4.7 1.3 9.4 2.5 15.3 2.4.5 0 .8.8 0 .9" class="st1"/></g><g id="g3443"><path id="path3445" d="M238.8-440.6c-5-.7-10.2-2.2-14.8-3.8-4.6-1.5-7.8-3.4-9.9-5.6 5.4 3.1 8.4 4.2 10.2 4.8 4.5 1.5 8.7 2.6 14.7 3.7.7.2.1 1-.2.9" class="st1"/></g><g id="g3447"><path id="path3449" d="M241.4-444.7c-10-1.6-16.5-5.9-20.6-10.2 6.4 4.8 10.8 7.4 20.8 9.4.6.1.4.9-.2.8" class="st1"/></g><g id="g3451"><path id="path3453" d="M246.3-448.4c-10.1-1.6-15.9-7.7-18.3-11.7 6.4 6.4 11.3 9.8 18.5 10.9.7.1.5.9-.2.8" class="st1"/></g><g id="g3455"><path id="path3457" d="M249.3-451.6c-1.6-.2-3.7-1.3-5.7-2.6s-3.5-2.8-4.5-4.9c2.4 2.5 3.4 3.2 4.9 4.2 1.9 1.2 3.9 2 5.5 2.5.7.2.2.9-.2.8" class="st1"/></g><g id="g3459"><path id="path3461" d="M326.6-395.5c0-2-1.6-3.5-3.5-3.5-2 0-3.5 1.6-3.5 3.5 0 2 1.6 3.5 3.5 3.5s3.5-1.6 3.5-3.5z" class="st2"/></g><g id="g3463"><path id="path3465" d="M326.6-395.5c0-2-1.6-3.5-3.5-3.5-2 0-3.5 1.6-3.5 3.5 0 2 1.6 3.5 3.5 3.5s3.5-1.6 3.5-3.5z" style="fill:#37c871;stroke:#fff;stroke-width:.4166;stroke-miterlimit:1.9933"/></g></g></g></g></g></g></svg>