<svg xmlns="http://www.w3.org/2000/svg" xml:space="preserve" width="682.667" height="682.667" fill="#fff" viewBox="0 0 682.667 682.667"><defs><clipPath id="a" clipPathUnits="userSpaceOnUse"><path d="M0 512h512V0H0Z"/></clipPath></defs><g clip-path="url(#a)" transform="matrix(1.33333 0 0 -1.33333 0 682.667)"><path d="M0 0h-481a8 8 0 0 0-8 8v40.1a8 8 0 0 0 8 8H0a8 8 0 0 0 8-8V8a8 8 0 0 0-8-8" style="fill:none;stroke:#fff;stroke-width:15;stroke-linecap:round;stroke-linejoin:round;stroke-miterlimit:10;stroke-dasharray:none;stroke-opacity:1" transform="translate(496.5 441.928)"/><path d="M0 0c0-41.946-34.004-75.95-75.95-75.95S-151.9-41.946-151.9 0s34.004 75.95 75.95 75.95S0 41.946 0 0" style="fill:none;stroke:#fff;stroke-width:15;stroke-linecap:round;stroke-linejoin:round;stroke-miterlimit:10;stroke-dasharray:none;stroke-opacity:1" transform="translate(226.159 337.168)"/><path d="M0 0v-75.95h75.95C75.95-34.004 41.946 0 0 0" style="fill:none;stroke:#fff;stroke-width:15;stroke-linecap:round;stroke-linejoin:round;stroke-miterlimit:10;stroke-dasharray:none;stroke-opacity:1" transform="translate(150.208 413.118)"/><path d="M0 0v-75.95h75.95C75.95-34.004 41.946 0 0 0" style="fill:none;stroke:#fff;stroke-width:15;stroke-linecap:round;stroke-linejoin:round;stroke-miterlimit:10;stroke-dasharray:none;stroke-opacity:1" transform="translate(150.208 413.118)"/><path d="M0 0h176.333" style="fill:none;stroke:#fff;stroke-width:15;stroke-linecap:round;stroke-linejoin:round;stroke-miterlimit:10;stroke-dasharray:none;stroke-opacity:1" transform="translate(261.408 385.615)"/><path d="M0 0h176.333" style="fill:none;stroke:#fff;stroke-width:15;stroke-linecap:round;stroke-linejoin:round;stroke-miterlimit:10;stroke-dasharray:none;stroke-opacity:1" transform="translate(261.408 351.6)"/><path d="M0 0h88.167" style="fill:none;stroke:#fff;stroke-width:15;stroke-linecap:round;stroke-linejoin:round;stroke-miterlimit:10;stroke-dasharray:none;stroke-opacity:1" transform="translate(261.408 317.584)"/><path d="M0 0h-17a8 8 0 0 0-8 8v97.998a8 8 0 0 0 8 8H0a8 8 0 0 0 8-8V8a8 8 0 0 0-8-8" style="fill:none;stroke:#fff;stroke-width:15;stroke-linecap:round;stroke-linejoin:round;stroke-miterlimit:10;stroke-dasharray:none;stroke-opacity:1" transform="translate(295.712 159.251)"/><path d="M0 0h-17a8 8 0 0 0-8 8v80.366a8 8 0 0 0 8 8H0a8 8 0 0 0 8-8V8a8 8 0 0 0-8-8" style="fill:none;stroke:#fff;stroke-width:15;stroke-linecap:round;stroke-linejoin:round;stroke-miterlimit:10;stroke-dasharray:none;stroke-opacity:1" transform="translate(358.075 159.251)"/><path d="M0 0h-17a8 8 0 0 0-8 8v49.524a8 8 0 0 0 8 8H0a8 8 0 0 0 8-8V8a8 8 0 0 0-8-8" style="fill:none;stroke:#fff;stroke-width:15;stroke-linecap:round;stroke-linejoin:round;stroke-miterlimit:10;stroke-dasharray:none;stroke-opacity:1" transform="translate(420.437 159.251)"/><path d="M0 0h-17a8 8 0 0 0-8 8v49.524a8 8 0 0 0 8 8H0a8 8 0 0 0 8-8V8a8 8 0 0 0-8-8" style="fill:none;stroke:#fff;stroke-width:15;stroke-linecap:round;stroke-linejoin:round;stroke-miterlimit:10;stroke-dasharray:none;stroke-opacity:1" transform="translate(420.437 159.251)"/><path d="M0 0h164.117" style="fill:none;stroke:#fff;stroke-width:15;stroke-linecap:round;stroke-linejoin:round;stroke-miterlimit:10;stroke-dasharray:none;stroke-opacity:1" transform="translate(74.258 210.269)"/><path d="M0 0h82.059" style="fill:none;stroke:#fff;stroke-width:15;stroke-linecap:round;stroke-linejoin:round;stroke-miterlimit:10;stroke-dasharray:none;stroke-opacity:1" transform="translate(74.258 176.253)"/><path d="M0 0v-45.222" style="fill:none;stroke:#fff;stroke-width:15;stroke-linecap:round;stroke-linejoin:round;stroke-miterlimit:10;stroke-dasharray:none;stroke-opacity:1" transform="translate(256 128.26)"/><path d="M0 0c0-11.186-9.068-20.254-20.254-20.254S-40.508-11.186-40.508 0s9.068 20.254 20.254 20.254S0 11.186 0 0" style="fill:none;stroke:#fff;stroke-width:15;stroke-linecap:round;stroke-linejoin:round;stroke-miterlimit:10;stroke-dasharray:none;stroke-opacity:1" transform="translate(276.254 62.785)"/><path d="M0 0v-299.667c0-7.732-6.268-14-14-14h-420c-7.732 0-14 6.268-14 14V0Z" style="fill:none;stroke:#fff;stroke-width:15;stroke-linecap:round;stroke-linejoin:round;stroke-miterlimit:10;stroke-dasharray:935,35,1000,0;stroke-dashoffset:0;stroke-opacity:1" transform="translate(480 441.928)"/><path d="M0 0h-39.34l26.848-100.201c2.716-10.136 13.135-16.151 23.27-13.435s16.151 13.134 13.435 23.27z" style="fill:none;stroke:#fff;stroke-width:15;stroke-linecap:round;stroke-linejoin:round;stroke-miterlimit:10;stroke-dasharray:226,35,400,0;stroke-dashoffset:0;stroke-opacity:1" transform="translate(388.484 128.26)"/><path d="m0 0-24.213-90.366c-2.716-10.136 3.299-20.554 13.435-23.27 10.135-2.716 20.554 3.299 23.27 13.435L39.34 0Z" style="fill:none;stroke:#fff;stroke-width:15;stroke-linecap:round;stroke-linejoin:round;stroke-miterlimit:10;stroke-dasharray:none;stroke-opacity:1" transform="translate(123.516 128.26)"/></g></svg>