<svg xmlns="http://www.w3.org/2000/svg" width="512" height="512" fill="#fff" viewBox="0 0 62 62"><path d="M10.333 6h-.666A3.67 3.67 0 0 0 6 9.667V10h2v-.333A1.67 1.67 0 0 1 9.667 8h.666A1.67 1.67 0 0 1 12 9.667c0 .522-.249 1.02-.666 1.333l-2.135 1.601A3.02 3.02 0 0 0 8 15v1h2v-1c0-.313.149-.612.399-.8l2.135-1.6A3.69 3.69 0 0 0 14 9.667 3.67 3.67 0 0 0 10.333 6M8 18h2v2H8zM30 4h2v2h-2z"/><path d="M52 32c-5.066 0-9.255 3.79-9.903 8.683L40 38.586V37c0-1.654-1.346-3-3-3-.395 0-.77.081-1.116.22a3 3 0 0 0-1.78-2.004c.147-.298.41-.441.513-.484a.98.98 0 0 1 1.091.218l.95.948 4.242-4.243-.951-.949a.98.98 0 0 1-.217-1.089.985.985 0 0 1 .925-.617H42v-4.586l3.901-3.901C47.55 19.63 50.115 21 53 21c4.963 0 9-4.038 9-9s-4.037-9-9-9-9 4.038-9 9c0 1.341.303 2.61.831 3.755l-4.234 4.234a.99.99 0 0 1-.865-.606.98.98 0 0 1 .216-1.088l.952-.95-4.242-4.243-.951.949a.98.98 0 0 1-1.09.217.985.985 0 0 1-.617-.925V12h-2V9.899A5.01 5.01 0 0 0 36 5c0-2.757-2.243-5-5-5s-5 2.243-5 5a5.01 5.01 0 0 0 4 4.899V12h-2v1.343c0 .62-.473.864-.617.924a.98.98 0 0 1-1.091-.218l-.95-.948-4.242 4.243.951.949a.98.98 0 0 1 .217 1.089.99.99 0 0 1-.865.606l-2.839-2.839A10.06 10.06 0 0 0 20 12c0-5.514-4.486-10-10-10S0 6.486 0 12c0 2.149.71 4.28 2 6l4 5.333V26c0 2.206 1.794 4 4 4s4-1.794 4-4v-2.667l3.394-4.526L20 21.414V26h1.343c.62 0 .864.473.925.618a.98.98 0 0 1-.216 1.088l-.952.95 4.242 4.243.658-.657v2.314A3.96 3.96 0 0 0 24 34c-1.103 0-2 .897-2 2v2.586l-5.901 5.901C14.45 42.37 11.885 41 9 41c-4.963 0-9 4.038-9 9s4.037 9 9 9 9-4.038 9-9a8.9 8.9 0 0 0-.831-3.755L22 41.414v2.343a11.15 11.15 0 0 0 2.961 7.583L23.895 62h14.211L37.04 51.341A11.16 11.16 0 0 0 40 43.757v-2.343l2.123 2.123c.253 1.61.896 3.156 1.877 4.463l4 5.333V56c0 2.206 1.794 4 4 4s4-1.794 4-4v-2.667L60 48c1.29-1.72 2-3.851 2-6 0-5.514-4.486-10-10-10m1-27c3.859 0 7 3.14 7 7s-3.141 7-7 7-7-3.14-7-7 3.141-7 7-7M28 5c0-1.654 1.346-3 3-3s3 1.346 3 3-1.346 3-3 3-3-1.346-3-3M9 57c-3.859 0-7-3.14-7-7s3.141-7 7-7 7 3.14 7 7-3.141 7-7 7m19.223-32.885A3 3 0 0 1 28 23c0-1.654 1.346-3 3-3s3 1.346 3 3a2.995 2.995 0 0 1-2.22 2.884A3 3 0 0 0 29 24c-.271 0-.528.048-.777.115M10 28c-1.103 0-2-.897-2-2v-2h4v2c0 1.103-.897 2-2 2m2.5-6h-5l-3.9-5.2A8.05 8.05 0 0 1 2 12c0-4.411 3.589-8 8-8s8 3.589 8 8a8.05 8.05 0 0 1-1.6 4.8zm12.893 8.121-1.513-1.512c.526-.814.622-1.822.235-2.756S22.947 24.274 22 24.07v-2.139a2.95 2.95 0 0 0 2.115-1.783 2.95 2.95 0 0 0-.235-2.756l1.512-1.512a2.95 2.95 0 0 0 2.757.235A2.94 2.94 0 0 0 29.931 14h2.139a2.95 2.95 0 0 0 1.782 2.115 2.95 2.95 0 0 0 2.757-.235l1.512 1.512c-.526.814-.622 1.822-.235 2.756s1.168 1.579 2.115 1.783v2.139a2.95 2.95 0 0 0-2.115 1.783 2.95 2.95 0 0 0 .235 2.756l-1.512 1.512a2.95 2.95 0 0 0-2.757-.235 2.94 2.94 0 0 0-1.812 2.287l-.039.012V27.9a5.01 5.01 0 0 0 4-4.899c0-2.757-2.243-5-5-5s-5 2.243-5 5c0 .804.191 1.577.551 2.278A2.97 2.97 0 0 0 26 27v2.839a2.8 2.8 0 0 0-.607.282M26.105 60l.8-8h8.189l.8 8zM38 43.757c0 2.336-.87 4.534-2.441 6.243h-9.118A9.17 9.17 0 0 1 24 43.757V36c1.103 0 2 .897 2 2v2h2V27a1.001 1.001 0 0 1 2 0v13h2v-5a1.001 1.001 0 0 1 2 0v5h2v-3a1.001 1.001 0 0 1 2 0zM52 58c-1.103 0-2-.897-2-2v-2h4v2c0 1.103-.897 2-2 2m6.4-11.2L54.5 52h-5l-3.9-5.2A8.05 8.05 0 0 1 44 42c0-4.411 3.589-8 8-8s8 3.589 8 8a8.05 8.05 0 0 1-1.6 4.8"/><path d="M52.333 36h-.666A3.67 3.67 0 0 0 48 39.667V40h2v-.333A1.67 1.67 0 0 1 51.667 38h.666A1.67 1.67 0 0 1 54 39.667c0 .522-.249 1.02-.666 1.333l-2.135 1.601A3.02 3.02 0 0 0 50 45v1h2v-1c0-.313.149-.612.399-.8l2.135-1.6A3.69 3.69 0 0 0 56 39.667 3.67 3.67 0 0 0 52.333 36M50 48h2v2h-2zM4 49h2v2H4zM8 49h2v2H8zM12 49h2v2h-2zM48 11h2v2h-2zM52 11h2v2h-2zM56 11h2v2h-2z"/></svg>