<svg xmlns="http://www.w3.org/2000/svg" xmlns:xlink="http://www.w3.org/1999/xlink" viewBox="0 0 132 130.96"><defs><linearGradient id="a" x1="33.43" x2="89.12" y1="18.71" y2="18.71" gradientUnits="userSpaceOnUse"><stop offset="0" stop-color="#e1e1e1"/><stop offset="1" stop-color="#818181"/></linearGradient><linearGradient xlink:href="#a" id="b" x1="5.95" x2="95.98" y1="6.91" y2="147.81"/><linearGradient xlink:href="#a" id="c" x1="37.37" x2="127.4" y1="-13.16" y2="127.74"/></defs><g data-name="Layer 2"><path d="M49.31 0h33.38a6.41 6.41 0 0 1 5 10.43L66 37.42l-21.68-27A6.41 6.41 0 0 1 49.31 0" style="fill:url(#a)"/><path d="M17.05 0 5.49 18a34.58 34.58 0 0 0 2.13 40.33L66 131l28.21-35.1L17.16 0Z" style="fill:url(#b)"/><path d="m115 0 11.55 18a34.58 34.58 0 0 1-2.13 40.35L66 131 37.79 95.86 114.84 0Z" style="fill:url(#c)"/></g></svg>