<?xml version="1.0" encoding="UTF-8"?>
<svg id="Layer_1" data-name="Layer 1" xmlns="http://www.w3.org/2000/svg" xmlns:xlink="http://www.w3.org/1999/xlink" viewBox="0 0 139.07 168.35">
  <defs>
    <style>
      .cls-1 {
        fill: #fff;
      }

      .cls-2 {
        fill: none;
      }

      .cls-3 {
        clip-path: url(#clippath);
      }
    </style>
    <clipPath id="clippath">
      <rect class="cls-2" width="139.07" height="168.35"/>
    </clipPath>
  </defs>
  <g class="cls-3">
    <path class="cls-1" d="M106.01,153.21c.79-1.49,2.35-2.51,4.16-2.53,1.8,0,3.38.99,4.19,2.46,0,0-8.35.07-8.35.07ZM110.14,147.74c-4.24.03-7.67,3.5-7.63,7.75.03,4.24,3.51,7.67,7.75,7.63,2.94-.03,5.47-1.69,6.75-4.11l-3.75.03c-.81.69-1.86,1.12-3.01,1.13-2.39,0-4.37-1.73-4.72-4.02l4.4-.03,7.94-.06c.02-.23.03-.46.03-.69-.03-4.25-3.51-7.67-7.75-7.63M123.09,153.21c.79-1.49,2.35-2.51,4.16-2.53,1.8,0,3.38.99,4.19,2.46,0,0-8.35.07-8.35.07ZM127.22,147.74c-4.24.03-7.67,3.5-7.63,7.75.03,4.24,3.51,7.67,7.75,7.63,2.94-.03,5.47-1.69,6.75-4.11l-3.75.03c-.81.69-1.86,1.12-3.01,1.13-2.39,0-4.37-1.73-4.72-4.02l4.4-.03,7.94-.06c.02-.23.03-.46.03-.69-.03-4.25-3.51-7.67-7.75-7.63M103.22,149.3c.27-.49.73-1.23.78-1.76.03-.24.11-.44.23-.61-.04,0-.1.02-.18.07-.82.57-2.6-.88-3.81.51-.52.61-.87,1.25-1.08,1.78-.02.03-.03.04-.03.06v.03c-.26.65-.34,1.12-.34,1.12,0,0,0,.02.03.04-.13.25-.25.49-.39.74v-3.53s-2.94,0-2.94,0v15.42h2.93v-10.79c.23-.48.5-1,.8-1.5.46.28,1.28.5,2.49-.19.58-.34,1.1-.85,1.52-1.39M89.68,142.6l-2.94,1.97v3.17h-3.85v2.94h3.85v12.46h2.94v-12.46h3.92v-2.94h-3.92v-5.14ZM83.61,79.09c.87-1.65.68-1.37,1.46-2.43.78-1.07,1.26-.98-.19-1.26-1.46-.29-1.66-1.17-2.34-.1-.68,1.07-.87,1.46-.1,2.24s0,1.17.49,1.56.68,0,.68,0M98.69,82.01c-.58-.59-1.55-.78-1.84.39s-1.46,1.46-1.56,3.11c-.1,1.65-.29,2.14-.78,3.12-.49.97-.1,2.23-.1,2.23l.97.1c1.17-.58,1.46-1.26,2.54-2.14,1.07-.87,1.55-1.07,1.07-2.72s.29-3.51-.29-4.09M122.78,0h-46.86c.88,1.23,3.4,3.79,3.21,4.92-.19,1.17,2.14,2.73,2.73,3.9.58,1.17,3.5.19,3.89,1.56.39,1.36,2.92.97,3.12,1.75.19.78.19,2.53,1.17,2.33.97-.19,1.75-2.33,3.11-1.94s3.11-.59,3.7.58c.58,1.17.58,1.75,0,2.34-.59.58-.59,1.75.97,1.56,1.56-.2,1.95-1.17,3.7-.59,1.75.59,1.76-.78,3.12-.78s2.92,1.37,3.11,2.14c.2.78,1.95,1.95,2.73,1.95s2.92-.39,3.7.59c.78.97,2.34,1.94,1.56,3.31-.78,1.36-.98,3.7-.98,3.7l2.15,1.17c.19,1.16,1.55,1.55.39,4.28-1.17,2.73-.59,2.34.39,3.11.97.78,1.75,1.56,1.94,3.9.2,2.34-.39,2.73,1.75,3.51,2.15.77,3.31,1.36,5.26,2.92,1.95,1.55,2.92,2.14,5.07,2.53,2.14.39,3.89,0,4.28,1.94.39,1.95,1.56,1.56,1.75,3.9.13,1.48.96,1.55,1.35,2.01V16.3C139.07,7.33,131.73,0,122.78,0M137.11,83.28c-.12.36-.23.67-.33.94-.41,1.08-.74,1.56-1.78,2.47-1.56,1.36-1.95.19-3.7.58-1.76.39-2.14,1.18-3.9,2.73-1.75,1.56-3.31,2.14-3.89,1.17-.59-.97-1.75-.2-1.75-.2,0,0,0,.59-1.95.78-1.95.2,0-.78-2.14-.78s-1.95.59-1.95.59l-.78.78c-1.36,0-1.36-1.95-2.53-1.95s-.78-.58-2.14.97c-1.37,1.56-3.32.59-4.09,2.15-.78,1.55.19.97-1.37,2.33-1.56,1.37-3.55,1.83-4.09,3.7-.77,2.73-.58,1.76-2.92,1.76s-2.33-.39-4.09.77c-1.75,1.17-2.34,1.76-3.89,2.34-1.56.59-2.53,1.17-3.89,1.56-1.37.39-.2,2.92-1.17,4.87-.98,1.95-1.76,3.89-1.76,7.2s0,4.09.39,7.21c.39,3.11.39,8.57.98,10.9.41,1.65,1.77,2.13,2.49,2.94h35.9c8.96,0,16.29-7.33,16.29-16.28v-41.27c-.52.57-1.17,1.15-1.96,1.77M134.25,143.06h-.51v-.79h.49c.21,0,.35,0,.42.04.08.03.14.08.18.14s.06.13.06.21c0,.12-.04.22-.13.29-.1.08-.26.11-.51.11M134.81,143.5c-.05-.05-.13-.1-.23-.14.23-.02.41-.1.55-.23.14-.15.21-.31.21-.5,0-.14-.04-.27-.12-.39-.09-.12-.19-.21-.33-.25-.14-.05-.36-.07-.67-.07h-.91v2.62h.42v-1.12h.25c.15,0,.26.03.34.09.11.09.26.29.44.61l.23.42h.52l-.32-.52c-.16-.24-.29-.42-.39-.52M73.15,160.24c-2.62,0-4.74-2.12-4.74-4.75s2.12-4.74,4.74-4.75c2.62,0,4.75,2.13,4.75,4.75s-2.12,4.74-4.75,4.75M77.94,149.47c-1.32-1.04-2.98-1.67-4.79-1.67-4.24,0-7.68,3.45-7.69,7.69,0,4.24,3.45,7.69,7.69,7.69,1.81,0,3.47-.62,4.79-1.67v1.63h2.94v-20.54l-2.94,1.97v4.9ZM136.15,144.21c-.18.32-.43.57-.75.74-.33.18-.67.28-1.01.28s-.69-.1-1.01-.28c-.32-.17-.57-.42-.75-.74-.18-.33-.27-.67-.27-1.01s.09-.69.27-1.02c.19-.33.44-.57.76-.75.33-.17.66-.26,1-.26s.68.09,1,.26c.33.18.58.42.76.75s.28.67.28,1.02-.1.68-.27,1.01M135.58,141.07c-.39-.22-.79-.32-1.2-.32s-.81.1-1.2.32c-.39.21-.69.5-.91.9-.22.39-.33.8-.33,1.22s.11.82.32,1.21c.22.39.52.68.91.9.38.22.79.32,1.21.32s.82-.1,1.21-.32.68-.51.9-.9.32-.8.32-1.21-.1-.83-.33-1.22c-.22-.4-.52-.69-.91-.9M1.69,35.48c.23-.17.45-.33.69-.47,2.13-1.28,4.82-1.58,7.41-1.75.3-.08.6-.18.87-.29.82-.31,1.51-.7,2.09-1,1.17-.58,1.76-.39,3.51.59,1.75.97,3.31,0,3.7-.59.39-.58-.58-.78-.39-3.12.19-2.33,1.56-3.31,2.73-4.47,1.17-1.17,3.5-2.34,4.09-3.7.58-1.37,1.16-1.56,2.53-.98,1.36.59,2.72,0,2.72,0l.2-.58s-.59-.39.19-1.56,2.34-3.12,2.92-2.73c.59.39.4-.38,1.37-1.94s.78-2.54,3.11-2.73c2.34-.19,3.12-.58,4.48-1.17,1.37-.58,2.53-1.75,2.53-2.92s-.58-2.34,1.56-2.72c2.14-.39,2.73-.4,5.26-1.95.79-.49,1.45-.98,2.04-1.42H16.29C7.33,0,0,7.33,0,16.3v20.81c.12-.23.26-.42.41-.59.46-.52,1.03-.83,1.28-1.03M23.29,160.22c-2.62,0-4.74-2.13-4.74-4.75s2.12-4.75,4.74-4.75,4.75,2.12,4.75,4.75-2.12,4.74-4.75,4.75M23.29,147.78c-1.81,0-3.47.62-4.78,1.67v-1.64h-2.94v20.54l2.94-1.96v-4.91c1.31,1.05,2.97,1.68,4.78,1.68,4.25,0,7.69-3.45,7.69-7.69s-3.44-7.69-7.69-7.69M59.76,82.69c.39.39,1.36.88,1.36.88.87.29,1.75.19,1.46-.59-.29-.78-.87-.1-.98-.87-.1-.78.39-.68-.97-.87-1.36-.2-1.85-.58-1.75.29.1.87.49.77.87,1.16M16.29,139.07h46.55c.38-.32.83-.72,1.3-1.19,1.37-1.37,3.12-5.65,3.12-7.99s1.36-7.01.19-10.51c-1.16-3.51-1.55-6.43-2.53-8.77-.97-2.33-1.56-4.86-.97-7.59.58-2.73,0-6.43-1.17-6.04s-1.95.2-3.5-.39c-1.56-.58-3.9-2.92-5.26-3.7s-2.14-1.94-3.12-2.92.2-2.34-.97-3.12c-1.17-.77-2.73-2.14-3.31-2.72-.59-.58-1.56-.78-2.34,0s-1.56,1.75-2.92,1.56c-1.36-.2-2.53-1.56-3.51-.58-.97.97-1.36,1.74-2.14,1.74s-1.95-.58-1.95-1.36.59-1.75-1.36-1.17c-1.94.59-3.7.98-4.28-.38-.59-1.37-1.37-1.56-1.56-2.34s-.39-2.34,0-2.92c.39-.59-.39-1.37-1.17-1.56s-.19-.78-.19-1.95-1.56.2-1.75-1.17c-.2-1.36,1.75-3.31.97-4.28s-.97,0-.97,0c0,0-1.76.39-2.93.39s-3.31-1.56-4.09-.97c-.78.58-.78-.2-1.94-.39-1.17-.2-2.14.58-3.31-.2s-3.12-1.75-3.12-2.53-1.36-2.14-1.36-2.92-.78-1.95-1.36-2.14c-.59-.2.19-2.53.19-2.53h-.78s0,.19-1.17.38c-.29.05-.57.08-.82.07-.98-.51-1.81-1.25-2.64-1.97-.05-.04-.1-.08-.14-.11v65.95c0,8.96,7.33,16.28,16.29,16.28M52.6,153.21c.79-1.49,2.35-2.51,4.16-2.53,1.8,0,3.38.99,4.19,2.46,0,0-8.35.07-8.35.07ZM56.73,147.74c-4.24.03-7.66,3.5-7.63,7.75.03,4.24,3.51,7.67,7.75,7.63,2.94-.03,5.47-1.69,6.75-4.11l-3.75.03c-.81.69-1.86,1.12-3.01,1.13-2.39,0-4.37-1.73-4.72-4.02l4.4-.03,7.94-.06c.02-.23.03-.46.03-.69-.03-4.25-3.5-7.67-7.75-7.63M66.68,70.04c.38.77.97,1.36.97,1.36.58-.68.19-.78.87-1.46.68-.68,1.17-.38.68-1.36-.49-.97-.49-1.46-1.26-.78-.78.68-1.56.49-1.85,1.07-.29.58.2.39.59,1.17M9.43,154.05l-3.92-.08c-.82-.16-1.45-.87-1.45-1.71s.62-1.53,1.45-1.71h3.79c.77.16,1.36.86,1.36,1.68h2.8c0-2.49-2.02-4.5-4.5-4.51h-3.09c-2.62,0-4.74,2-4.75,4.54,0,2.36,1.83,4.29,4.17,4.56l3.92.08c.82.16,1.44.87,1.44,1.71s-.61,1.54-1.44,1.71h-3.89c-.82-.12-1.46-.85-1.46-1.72H1.06c0,2.26,1.62,4.12,3.74,4.5.12.06.15.04.59.1,1.22,0,3.4,0,3.46,0,2.62,0,4.74-2.06,4.74-4.6,0-2.36-1.82-4.29-4.17-4.56M35.71,153.2c.8-1.48,2.36-2.5,4.17-2.51,1.81,0,3.38,1,4.19,2.48,0,0-8.36.03-8.36.03ZM39.87,147.74c-4.25.02-7.67,3.47-7.66,7.73.02,4.24,3.47,7.67,7.73,7.66,2.93-.02,5.47-1.66,6.76-4.08l-3.75.02c-.81.68-1.86,1.11-3.02,1.12-2.38,0-4.36-1.74-4.7-4.03l4.4-.03,7.94-.03c.02-.23.03-.46.03-.69-.03-4.25-3.48-7.67-7.73-7.66"/>
  </g>
</svg>