<svg xmlns="http://www.w3.org/2000/svg" width="512" height="512" viewBox="0 0 16.933 16.933"><path d="M8.467.53a1.058 1.058 0 1 0-.002 2.115A1.058 1.058 0 0 0 8.467.529m0 .528a.529.529 0 1 1 .002 1.058.529.529 0 0 1-.002-1.058m-1.78 1.059L3.145 3.75c-.32.14-.106.63.221.48L6.91 2.598c.247-.11.183-.486-.094-.506a.26.26 0 0 0-.129.026m6.88 2.115c.327.149.541-.34.222-.481l-3.543-1.634a.26.26 0 0 0-.129-.026c-.276.02-.34.396-.093.506zm-5.794-.684a.62.62 0 0 0-.314.348c-.044.104-.06.163-.115.23s-.155.153-.385.25c-.232.098-.366.112-.456.106-.089-.006-.142-.033-.243-.073a.64.64 0 0 0-.456-.025c-.177.058-.35.199-.544.395-.21.213-.337.388-.387.549a.64.64 0 0 0 .035.452c.041.1.068.155.076.243s-.004.223-.098.455-.179.337-.246.394c-.066.058-.124.076-.222.118a.63.63 0 0 0-.342.295c-.078.15-.11.36-.107.652-.002.268.021.488.107.652a.63.63 0 0 0 .342.295c.098.042.153.059.22.116.066.058.154.164.248.396.093.227.105.361.098.45-.007.087-.032.14-.072.235a.65.65 0 0 0-.047.434 1 1 0 0 0 .212.38q-.271.442-.42.95a2.1 2.1 0 0 0-.74-.668 1.322 1.322 0 1 0-2.33-.858c-.001.327.118.626.317.858a2.12 2.12 0 0 0-1.11 1.869v.31c0 .663.534 1.196 1.19 1.196h1.851c.245 0 .473-.073.663-.202v.998c0 .317.1.628.342.833s.597.269 1.002.19l.018-.004 2.605-.702 2.616.704c.414.08.759.025 1.012-.188.242-.204.342-.514.342-.83v-1c.19.129.418.2.663.2h1.851c.656 0 1.19-.532 1.19-1.194v-.311c0-.809-.445-1.51-1.11-1.87.2-.23.318-.53.318-.857a1.324 1.324 0 1 0-2.33.858c-.296.16-.55.387-.741.67a4 4 0 0 0-.42-.953 1 1 0 0 0 .212-.379.65.65 0 0 0-.047-.434c-.04-.095-.065-.148-.072-.236s.005-.222.098-.45c.094-.231.182-.337.249-.395s.12-.074.22-.116a.63.63 0 0 0 .342-.295c.085-.164.109-.383.107-.652.002-.293-.03-.502-.107-.652a.63.63 0 0 0-.342-.295c-.1-.042-.156-.06-.223-.118s-.152-.162-.246-.394-.106-.367-.098-.455.035-.142.077-.243a.64.64 0 0 0 .035-.452c-.05-.16-.177-.336-.387-.549-.194-.196-.368-.336-.545-.395-.196-.064-.354-.014-.455.026s-.155.066-.244.072c-.09.006-.224-.008-.455-.106-.231-.097-.33-.183-.385-.25s-.072-.126-.116-.23a.62.62 0 0 0-.314-.348c-.171-.083-.377-.109-.693-.11-.317 0-.522.027-.694.11m-6.186.155a1.057 1.057 0 1 0-.001 2.115 1.057 1.057 0 0 0 .001-2.115m13.759 0a1.058 1.058 0 1 0-.002 2.116 1.058 1.058 0 0 0 .002-2.116m-6.416.32c.036.017.04.046.056.078.03.07.075.213.194.359s.301.284.587.405c.285.12.512.159.7.146s.325-.079.4-.108c.044-.017.067-.027.096-.017.038.012.134.061.334.264.19.193.246.298.258.336.008.031-.005.059-.02.093-.025.06-.097.21-.113.397s.018.415.134.7c.117.287.249.474.391.597.142.122.288.173.362.205.042.018.062.02.078.05.016.032.053.135.05.409.002.257-.029.366-.05.408-.016.031-.046.037-.078.05-.075.032-.22.083-.362.206s-.274.31-.39.595c-.114.281-.15.505-.135.69s.075.31.111.398c.016.044.031.068.023.098a.4.4 0 0 1-.023.056 4 4 0 0 0-1.47-1.11c.326-.373.52-.859.52-1.39A2.12 2.12 0 0 0 8.468 5.82c-1.166 0-2.117.951-2.117 2.117 0 .532.194 1.018.52 1.39a4 4 0 0 0-1.47 1.11.4.4 0 0 1-.023-.055c-.008-.03.008-.054.023-.098.037-.087.097-.213.111-.398s-.02-.409-.134-.69c-.116-.286-.248-.473-.39-.595-.143-.123-.288-.174-.362-.206-.033-.013-.062-.019-.078-.05-.022-.042-.053-.151-.051-.408-.002-.274.034-.377.05-.409.017-.03.037-.032.079-.05.074-.032.219-.083.361-.205.143-.123.275-.31.391-.596s.15-.514.134-.701-.088-.336-.113-.397c-.014-.034-.028-.062-.02-.093.012-.038.068-.143.258-.336.2-.203.297-.252.335-.264.029-.01.051 0 .095.017.075.03.214.095.4.108.188.013.415-.026.7-.146.286-.121.469-.26.588-.405.118-.146.164-.289.193-.36.017-.031.02-.06.057-.077.042-.02.182-.055.463-.055.28 0 .42.034.463.055m-7.343.21A.529.529 0 1 1 1.59 5.29a.529.529 0 0 1-.003-1.057m13.759 0a.528.528 0 1 1 0 1.058.53.53 0 0 1 0-1.058M2.064 6.25a.265.265 0 0 0-.271.336l.465 1.762c.08.355.615.214.511-.135l-.465-1.761a.265.265 0 0 0-.24-.202m12.805 0a.26.26 0 0 0-.24.202l-.465 1.761c-.104.35.43.49.512.135l.465-1.762a.265.265 0 0 0-.272-.336m-6.402.099a1.588 1.588 0 1 1 0 3.176 1.588 1.588 0 0 1 0-3.176M2.91 9.524a.793.793 0 1 1 0 1.587.793.793 0 0 1 0-1.587m11.113 0a.794.794 0 1 1 .002 1.587.794.794 0 0 1-.002-1.587m-7.408 4.354v-.916c-.008-.345-.521-.345-.53 0v1.052l-.065.017c-.343.087-.212.6.13.513l4-1.027a.553.553 0 1 1 .288 1.069L5.74 15.85h-.002c-.3.058-.462.005-.556-.074-.095-.08-.154-.219-.154-.43v-2.382c0-1.509.962-2.782 2.293-3.247a2.12 2.12 0 0 0 2.29 0 3.43 3.43 0 0 1 2.295 3.247v2.386c0 .208-.06.346-.154.426-.095.08-.256.132-.557.074l-1.71-.46 1.09-.294a1.083 1.083 0 0 0 .272-1.977v-.158c-.008-.345-.521-.342-.529.009a1 1 0 0 0-.3.032zm2.91-2.501c-.345.008-.345.521 0 .529h.793c.345-.008.345-.522 0-.53zm-7.127.16a1.33 1.33 0 0 0 1.026 0 1.59 1.59 0 0 1 1.074 1.509v.31a.66.66 0 0 1-.663.667H1.984a.66.66 0 0 1-.661-.667v-.31c0-.699.446-1.298 1.075-1.51m11.111 0a1.32 1.32 0 0 0 1.027 0c.628.211 1.074.81 1.074 1.509v.31c0 .365-.29.667-.66.667h-1.852a.663.663 0 0 1-.663-.667v-.31c0-.698.446-1.298 1.074-1.51"/></svg>