<svg xmlns="http://www.w3.org/2000/svg" width="1024" height="1024"><path fill="#3bb779" d="M1024 1024H0V0h1024z"/><path fill="#fff" d="M510.802 347.397c62.887 0 113.87 50.984 113.87 113.87 0 62.902-50.983 113.885-113.87 113.885-62.886 0-113.87-50.983-113.87-113.885 0-62.886 50.984-113.87 113.87-113.87m143.56 251.798c34.4-35.782 55.576-84.358 55.576-137.928 0-109.977-89.159-199.135-199.136-199.135S311.667 351.29 311.667 461.267c0 53.911 20.254 101.582 55.055 137.438-104.479 26.51-188.986 82.056-237.964 151.644 104.42-51.638 238.083-82.65 383.798-82.65 145.7 0 279.378 31.012 383.783 82.65-49.409-70.212-136.22-124.911-241.976-151.154"/></svg>