<svg xmlns="http://www.w3.org/2000/svg" width="167.417" height="196.692"><defs><clipPath id="a" clipPathUnits="userSpaceOnUse"><path d="M301.85 68.616h16.056v19.436H301.85z"/></clipPath></defs><g clip-path="url(#a)" transform="matrix(8.66175 0 0 -8.66175 -2600.375 776.853)"><path d="M314.089 70.364a.548.548 0 0 0 .964.007zm.477.631a.888.888 0 1 1 .793-1.301l-.433-.003a.55.55 0 0 0-.348-.131.55.55 0 0 0-.545.464l.508.004.917.007q.003.04.003.08a.89.89 0 0 1-.895.88m1.495-.631a.548.548 0 0 0 .964.008zm.477.632a.888.888 0 1 1 .793-1.302l-.433-.003a.55.55 0 0 0-.348-.131.55.55 0 0 0-.545.464l.508.004.917.007q.003.04.003.08a.89.89 0 0 1-.895.88m-2.771-.18c.03.058.084.143.09.204a.14.14 0 0 0 .027.07q-.007 0-.021-.008c-.095-.066-.3.102-.44-.06a.8.8 0 0 1-.125-.204l-.004-.007v-.003c-.03-.075-.04-.13-.04-.13l.005-.004-.045-.086v.408h-.34v-1.78h.339v1.246q.04.084.092.173c.053-.032.148-.058.287.022a.6.6 0 0 1 .175.16m-1.563.773-.34-.227v-.366h-.445v-.34h.445v-1.438h.34v1.438h.453v.34h-.453zm-.701 7.332c.1.19.078.158.168.28.09.125.146.114-.022.147-.17.034-.192.135-.27.012s-.101-.17-.011-.26 0-.134.056-.18.079 0 .079 0m1.74-.336c-.066.068-.178.09-.212-.045s-.168-.168-.18-.36a.73.73 0 0 0-.09-.36c-.056-.111-.011-.257-.011-.257l.112-.011c.135.067.169.146.293.247.123.1.179.123.123.314s.034.405-.034.472m2.78 9.468h-5.41c.103-.142.393-.438.372-.568-.022-.135.247-.315.315-.45.067-.135.404-.022.449-.18.045-.157.337-.112.36-.202s.022-.292.135-.27c.112.023.202.27.359.225s.359.068.427-.067c.067-.135.067-.202 0-.27-.068-.067-.068-.202.112-.18s.225.135.427.068c.202-.068.203.09.36.09s.337-.158.359-.247c.023-.09.225-.225.315-.225s.337.045.427-.068c.09-.112.27-.224.18-.382-.09-.157-.113-.427-.113-.427l.248-.135c.022-.134.179-.18.045-.494-.135-.315-.068-.27.045-.36.112-.09.202-.18.224-.45.023-.27-.045-.314.202-.404.248-.09.382-.157.607-.337s.337-.247.585-.292c.247-.046.449 0 .494-.225.045-.224.18-.18.202-.45.015-.17.11-.178.156-.231v4.65a1.887 1.887 0 0 1-1.881 1.88m1.655-9.613-.038-.109a.6.6 0 0 0-.206-.284c-.18-.158-.225-.023-.427-.068-.203-.044-.247-.135-.45-.314-.202-.18-.382-.247-.45-.135-.067.111-.201.022-.201.022s0-.067-.225-.09 0 .09-.247.09c-.248 0-.225-.067-.225-.067l-.09-.09c-.157 0-.157.224-.292.224s-.09.067-.247-.112c-.158-.18-.383-.067-.472-.247-.09-.18.022-.113-.158-.27s-.41-.21-.472-.427c-.09-.315-.067-.203-.337-.203s-.27.045-.472-.089c-.202-.135-.27-.203-.45-.27-.18-.068-.291-.135-.448-.18s-.023-.337-.135-.562-.203-.449-.203-.83 0-.473.045-.833c.045-.359.045-.989.113-1.258.047-.19.204-.246.287-.34h4.145c1.034 0 1.88.846 1.88 1.88v4.765a2 2 0 0 0-.225-.204m-.331-6.902h-.06v.091h.057a.1.1 0 0 0 .049-.005q.014-.005.02-.016c.007-.01.008-.015.008-.024a.04.04 0 0 0-.015-.033q-.016-.013-.06-.013m.066-.05a.1.1 0 0 1-.026.015.1.1 0 0 1 .063.027.08.08 0 0 1 .01.103.07.07 0 0 1-.038.03.3.3 0 0 1-.077.007h-.105v-.303h.049v.13h.029q.026 0 .039-.01a.3.3 0 0 0 .05-.072l.028-.048h.06l-.037.06a.4.4 0 0 1-.045.06m-7.118-1.932a.548.548 0 1 0 .002 1.096.548.548 0 0 0-.002-1.096m.553 1.243a.89.89 0 1 1-.553-1.583c.209 0 .4.072.553.193v-.188h.34v2.371l-.34-.227zm6.72.608a.24.24 0 0 0-.204-.118.23.23 0 0 0-.117.032.2.2 0 0 0-.087.086.24.24 0 0 0 0 .235.23.23 0 0 0 .204.117.24.24 0 0 0 .115-.03q.057-.03.088-.087a.2.2 0 0 0 .032-.118.25.25 0 0 0-.031-.117m-.066.362a.28.28 0 0 1-.42-.245q0-.072.037-.14a.28.28 0 0 1 .385-.104q.067.038.104.104c.037.066.037.092.037.14a.3.3 0 0 1-.038.141.25.25 0 0 1-.105.104m-15.458 12.19q.039.03.08.054c.246.148.556.182.855.202a1 1 0 0 1 .1.033c.096.036.175.081.242.115.135.067.203.045.405-.068.202-.112.382 0 .427.068.045.067-.067.09-.045.36s.18.382.315.516c.135.135.404.27.472.427.067.158.134.18.292.113a.43.43 0 0 1 .314 0l.023.067s-.068.045.022.18.27.36.337.315c.068-.045.046.044.158.224s.09.293.359.315c.27.022.36.067.517.135.158.067.292.202.292.337s-.067.27.18.314c.247.045.315.046.607.225q.134.086.235.164h-4.501a1.886 1.886 0 0 1-1.881-1.88v-2.403q.021.039.047.068c.053.06.119.096.148.12m2.494-14.402a.549.549 0 1 0 .003 1.098.549.549 0 0 0-.003-1.098m0 1.436a.88.88 0 0 1-.552-.193v.19h-.34v-2.372l.34.226v.567a.889.889 0 1 1 .552 1.582m4.21 7.515a1 1 0 0 1 .158-.102c.1-.033.202-.022.169.068-.034.09-.101.011-.113.101s.045.08-.112.101c-.157.023-.214.067-.202-.034.01-.1.056-.089.1-.134m-5.018-6.509h5.374q.067.056.15.137c.158.158.36.652.36.922s.157.81.022 1.213c-.134.405-.18.742-.292 1.012s-.18.561-.112.876 0 .742-.135.697-.225-.023-.404.045c-.18.067-.45.337-.607.427s-.247.224-.36.337c-.112.112.023.27-.112.36a3 3 0 0 0-.382.314c-.068.067-.18.09-.27 0s-.18-.202-.337-.18-.292.18-.405.067c-.112-.112-.157-.2-.247-.2s-.225.066-.225.156.068.202-.157.135c-.224-.068-.427-.113-.494.044-.068.158-.158.18-.18.27s-.045.27 0 .337c.045.068-.045.158-.135.18s-.022.09-.022.225-.18-.023-.202.135c-.023.157.202.382.112.494s-.112 0-.112 0-.203-.045-.338-.045c-.134 0-.382.18-.472.112s-.09.023-.224.045c-.135.023-.247-.067-.382.023s-.36.202-.36.292-.157.247-.157.337-.09.225-.157.247c-.068.023.022.292.022.292h-.09s0-.022-.135-.044a.5.5 0 0 0-.095-.008c-.113.06-.21.144-.305.227l-.016.013v-7.614c0-1.034.846-1.88 1.88-1.88m4.193-1.633a.548.548 0 0 0 .964.008zm.477.632a.889.889 0 1 1 .793-1.302l-.433-.003a.55.55 0 0 0-.348-.13.55.55 0 0 0-.545.463l.508.004.917.007q.003.04.003.08a.887.887 0 0 1-.895.881m1.148 8.97a.7.7 0 0 1 .112-.157c.067.08.022.09.1.17.08.077.136.043.08.156-.056.112-.057.168-.146.09-.09-.079-.18-.057-.214-.124-.033-.066.023-.044.068-.134m-6.61-9.7-.451.01a.204.204 0 0 0-.167.196c0 .097.072.178.167.198h.438a.2.2 0 0 0 .157-.195h.323a.52.52 0 0 1-.52.522h-.357a.534.534 0 0 1-.548-.525.54.54 0 0 1 .482-.526l.452-.01c.095-.019.166-.1.166-.197s-.071-.178-.166-.197h-.45a.2.2 0 0 0-.168.198h-.323a.526.526 0 0 1 .432-.519c.014-.007.017-.005.068-.012h.4a.54.54 0 0 1 .547.53c0 .272-.21.495-.481.527m3.034.1a.55.55 0 0 0 .965.003zm.48.63a.887.887 0 1 1 .788-1.306l-.433-.002a.546.546 0 0 0-.892.336l.508.003.917.004q.004.04.004.08a.89.89 0 0 1-.892.884"/></g></svg>