<svg xmlns="http://www.w3.org/2000/svg" data-name="logosandtypes com" viewBox="0 0 150 150"><path d="M0 .2h150v150H0Z" style="fill:none" transform="translate(0 -.2)"/><path d="M120.85 29.22v-.09C109.38 12.72 86.74 7.86 70.36 18.29L41.61 36.61a32.94 32.94 0 0 0-14.9 22A34.73 34.73 0 0 0 30.12 81a33.1 33.1 0 0 0-4.93 12.3 35.2 35.2 0 0 0 6 26.6c11.47 16.4 34.12 21.27 50.49 10.84l28.75-18.25a33.08 33.08 0 0 0 14.91-22 34.8 34.8 0 0 0-3.43-22.31 33.1 33.1 0 0 0 4.94-12.32 35.16 35.16 0 0 0-6-26.64m-8.23 23.46a23 23 0 0 1-.68 2.68l-.55 1.64-1.47-1.1a37.3 37.3 0 0 0-11.24-5.63L97.57 50l.1-1.1a6.47 6.47 0 0 0-1.16-4.28 6.88 6.88 0 0 0-7.35-2.65 6 6 0 0 0-1.76.77L58.63 61a6 6 0 0 0-2.7 4A6.44 6.44 0 0 0 57 69.82a6.89 6.89 0 0 0 7.33 2.74 6.4 6.4 0 0 0 1.76-.78l11-7A20.8 20.8 0 0 1 83 62.22a22.83 22.83 0 0 1 24.51 9.09 21.1 21.1 0 0 1 3.61 16 19.8 19.8 0 0 1-9 13.29L73.4 118.92a21.5 21.5 0 0 1-5.85 2.57 22.87 22.87 0 0 1-24.55-9.1 21.14 21.14 0 0 1-3.6-16 18.4 18.4 0 0 1 .68-2.65l.54-1.66 1.48 1.1a37.3 37.3 0 0 0 11.21 5.58l1.1.32-.09 1.11a6.43 6.43 0 0 0 1.2 4.24 6.86 6.86 0 0 0 7.38 2.73 6 6 0 0 0 1.77-.77l28.74-18.31a6 6 0 0 0 2.7-4A6.36 6.36 0 0 0 95 79.25a6.9 6.9 0 0 0-7.39-2.74 6.3 6.3 0 0 0-1.76.78l-11 7A21 21 0 0 1 69 86.84a22.84 22.84 0 0 1-24.48-9.08 21.13 21.13 0 0 1-3.58-16 19.83 19.83 0 0 1 9-13.29L78.7 30.15a21.2 21.2 0 0 1 5.8-2.56 22.85 22.85 0 0 1 24.5 9.1 21.1 21.1 0 0 1 3.62 15.99" style="fill:#ff3e00" transform="translate(0 -.2)"/></svg>