<svg xmlns="http://www.w3.org/2000/svg" viewBox="0 0 685.65 617.17"><path d="M351.49 616.59c-10.28-1.43-29.98-5.85-44.52-9.94-65.61-18.48-119.41-50.81-153.38-92.17-5.14-6.26-11.77-15.34-11.44-15.66 0 0 3.14.05 6.74.57 7.65.74 17.69.57 22.11-.8 9.67-2.57 15.67-8.77 17.21-17.79.57-2.34.57-38.94.57-127.5V229.11l-1.43-4.06c-3.43-9.65-8.95-13.76-20.2-15.01-6.01-.69-14.24 2.57-24.87 9.74-38.62 26.11-88.66 89.98-138.11 176.31-2.23 3.89-4.11 7.01-4.17 6.94 0 0 0-5.31.57-11.64 3.14-77.89 36.71-159.45 95.77-232.66 14.38-17.83 36.07-40.89 53.06-56.41C204.33 52.15 265 17.45 326.05 1.31L330.96 0l-1.6 1.37c-.86.8-4.91 4.29-8.98 7.82-8.31 7.23-22.67 21.36-29.39 28.94-17.67 19.93-28.14 37.66-30.29 51.32-1.2 7.69 0 24.73 2.86 34.7 3.14 11.83 8.97 19.49 17.08 22.47 2.29.86 4.17 1.09 7.9 1.09 5.6 0 9.66-.97 15.3-3.54l3.71-1.71v313.9l1.66 3.43c4.74 9.67 15.93 13.95 38.27 14.65 11.1.57 14.7 0 23.18-2.74 13.7-4.34 30.53-12.91 49.45-25.18l5.43-3.54V314.84c.01-137.64 0-130.95-2.57-139.02-4.8-14.49-20-34.89-38.3-51.43l-5.98-5.37h2.97c4.4 0 15.43 1.31 23.03 3.2 14.47 3.66 29.34 10.15 40.71 17.82l3.71 2.51 1.31-2.23c2.11-3.66 7.82-10.53 13.37-16.19 29.86-30.5 77.62-55.57 139.64-73.33 5.49-1.54 10.18-2.86 10.42-2.86 0 0-2.63 4.11-6.41 9.13-22.1 29.43-42.74 61.36-53.26 82.41-5.37 10.71-7.87 17.1-9.03 22.89-.97 4.91-1.77 274.32-.86 277.85 1.71 6.33 8.9 9.97 21.11 10.69 6.24.57 12.25-.63 21.21-3.6 31.39-10.31 62.58-30.46 90.2-58.25l8.82-8.87-.63 2.46c-1.94 7.4-9.65 21.44-21.6 39.45-37.47 56.5-90.69 114.25-140.93 152.95-8.49 6.54-24.84 18.03-25.66 18.03-.57 0-16.49-15.91-35.95-35.35-30.22-30.19-35.47-35.24-36-34.55-.57.57-16.32 21.79-35.5 47.44-19.19 25.65-35.15 46.6-35.49 46.55-.57-.04-1.31 0-2.11-.57h-.3Z" data-name="Layer 1" style="fill:#fff"/></svg>