<svg xmlns="http://www.w3.org/2000/svg" data-name="Layer 1" viewBox="0 0 798.44 700.92"><path d="M410.11 80.55c-3.05-15.26.84-31.08 11.4-47.46C433.99 13.38 448.7 2.56 465.63.33c21.93-2.5 42.19 9.16 61.07 34.42 17.49 23.59 25.26 45.8 23.32 66.06-.28 12.21-18.32 19.7-54.13 22.2-28.04 2.23-48.3-.55-61.36-8.6-13.6-8.04-21.65-19.42-24.42-33.86m386.95 617.62c-1.94 4.15-8.87 3.6-20.82-1.67-20.26-9.71-42.74-24.43-68-44.42-28.04-22.2-44.42-39.69-48.86-52.46-.83-3.05-.55-6.93 1.11-11.93l5.28-14.16c3.6-13.04-1.12-26.08-14.16-39.14-6.38-6.38-14.98-12.48-25.54-18.32-24.7-13.04-60.23-24.14-107.14-33.03-48.58-9.16-94.93-14.43-139.07-15.54l-53.57 2.78c-14.16 16.37-27.75 31.64-40.81 45.79-11.1 11.66-21.92 22.49-32.47 32.48-42.47 38.03-83.82 66.9-124.35 86.88-55.24 26.93-96.6 34.7-124.64 22.76-3.61-2.5-4.72-6.66-3.61-12.49l5-15.54c19.15-41.64 50.52-79.67 93.55-114.09 3.61-3.05 7.49-5.83 11.1-8.6 34.14-25.26 80.22-51.91 138.24-79.39 38.02-16.37 69.4-27.2 93.82-32.47l23.04-31.93c9.16-11.38 18.87-22.2 28.59-32.48 20.82-22.48 42.18-43.3 64.68-61.9 1.94-.84 2.22-1.94 1.1-3.33-11.37-6.38-29.97-18.32-55.22-35.81-21.66-14.71-38.59-24.98-50.81-30.54-38.3-17.2-77.44-12.21-117.68 14.99-24.16 16.1-37.2 33.87-38.59 53.3l-1.39 23.87c1.39 6.66-19.98 17.76-63.84 33.31-8.05 2.5-14.71 4.72-20.27 6.1-9.72 1.94-16.38 2.23-19.71.55l-1.11-.55-3.05-1.94c-3.89-7.77 14.43-34.42 54.68-80.22 2.78-3.11 5.58-6.13 8.41-9.11l.09-.12.09-.06c72.87-76.65 158.81-106.31 257.6-88.69 27.2 4.72 72.18 21.37 135.19 49.69 6.93-6.95 18.88-15.27 35.25-24.71 20.82-11.93 38.02-18.32 51.07-18.59 28.6-.28 46.63 10.54 54.13 33.03 4.44 13.61-5.56 32.76-30.25 57.46-25.53 26.09-49.69 42.47-72.45 49.12-28.6 8.61-59.68 3.61-92.72-14.42-14.7 11.38-31.36 27.76-49.41 48.57-.83.84-1.67 1.94-2.5 2.78l-42.74 51.08-.56 3.6 29.42-1.1c21.1.56 42.47 4.16 64.4 11.1 59.68 19.15 109.64 42.74 149.88 70.79 19.15 13.6 37.77 29.15 55.25 46.63 18.04 18.32 35.53 38.86 51.9 61.34 14.45 20 26.65 40.25 36.92 60.51 14.44 28.32 19.7 48.3 15.54 60.25ZM578.33 211.85c5.27 4.16 17.76 5.83 38.03 5 22.48-.84 37.75-5.27 46.35-13.88 4.17-4.17 4.17-8.33-.55-12.21-5.27-4.72-14.99-5.83-28.86-3.89-11.94 1.94-24.71 6.1-38.58 12.5-13.6 6.38-19.16 10.55-16.38 12.49ZM275.49 477.76l-6.39-.83c-19.15 3.89-36.92 8.33-53.29 13.33-23.04 7.49-44.42 16.09-64.12 25.8a373.5 373.5 0 0 0-44.13 24.7c-43.31 28.03-63.29 55.25-59.68 81.61l4.17 4.72c11.38 7.5 33.86 1.66 67.17-17.49 45.25-26.36 85.77-57.45 121.58-93.55 11.94-12.21 23.59-24.98 34.7-38.31Z" data-name="2069a460dcf28295e231f3111e0439b1" style="fill:#fff"/></svg>