<svg xmlns="http://www.w3.org/2000/svg" width="16" height="16" viewBox="0 0 16 16"><desc>Itch Io Streamline Icon: https://streamlinehq.com</desc><!--! Font Awesome Free 6.5.2 by @fontawesome - https://fontawesome.com License - https://fontawesome.com/license/free (Icons: CC BY 4.0, Fonts: SIL OFL 1.1, Code: MIT License) Copyright 2024 Fonticons, Inc.--><path d="M2.248 1.087C1.568 1.49.23 3.027.218 3.429v.667c0 .846.791 1.589 1.509 1.589.861 0 1.579-.714 1.579-1.563 0 .848.693 1.563 1.555 1.563s1.531-.714 1.531-1.563c0 .848.737 1.563 1.599 1.563h.016c.861 0 1.598-.714 1.598-1.563 0 .848.671 1.563 1.532 1.563s1.555-.714 1.555-1.563c0 .848.718 1.563 1.579 1.563.719 0 1.508-.743 1.508-1.59V3.43c-.013-.403-1.35-1.94-2.029-2.344C11.643 1.012 10.18 1 8 1s-5.152.034-5.752.087m4.134 4.2c-.687 1.2-2.434 1.209-3.12.007-.411.723-1.349 1.002-1.75.864-.12 1.255-.427 7.41.554 8.411 2.5.584 9.44.567 11.868 0 .989-1.008.666-7.25.554-8.41-.403.138-1.34-.144-1.75-.865-.687 1.204-2.432 1.19-3.12-.007-.222.39-.72.904-1.617.904a1.8 1.8 0 0 1-1.618-.904zm-1.299 1.68c.515 0 .972 0 1.538.618a13.7 13.7 0 0 1 2.756 0c.567-.616 1.025-.616 1.539-.616 1.635 0 2.038 2.423 2.62 4.514.54 1.942-.172 1.99-1.06 1.991-1.317-.049-2.047-1.005-2.047-1.962-1.226.201-3.185.275-4.86 0 0 .957-.73 1.913-2.047 1.962-.888-.001-1.6-.049-1.06-1.991.583-2.094.985-4.514 2.62-4.514zM8 8.462s-1.387 1.274-1.636 1.726l.906-.037v.791c0 .049.667.005.73.005.363.017.728.031.728-.005v-.79l.906.037c-.25-.453-1.636-1.726-1.636-1.726z"/></svg>